<?xml version="1.0" standalone="no"?>
<!DOCTYPE svg PUBLIC "-//W3C//DTD SVG 20010904//EN"
 "http://www.w3.org/TR/2001/REC-SVG-20010904/DTD/svg10.dtd">
<svg version="1.0" xmlns="http://www.w3.org/2000/svg"
 width="1164.000000pt" height="1164.000000pt" viewBox="0 0 1164.000000 1164.000000"
 preserveAspectRatio="xMidYMid meet">
<metadata>
Created by potrace 1.11, written by Peter Selinger 2001-2013
</metadata>
<g transform="translate(0.000000,1164.000000) scale(0.100000,-0.100000)"
fill="#000000" stroke="none">
<path d="M5549 11506 c-2 -2 -47 -7 -99 -10 -52 -4 -104 -9 -115 -11 -11 -2
-47 -7 -80 -10 -33 -3 -67 -8 -75 -10 -8 -2 -37 -6 -65 -10 -27 -3 -59 -8 -70
-10 -11 -3 -31 -7 -45 -9 -26 -5 -254 -54 -280 -61 -117 -31 -361 -106 -405
-124 -11 -5 -58 -23 -105 -41 -211 -80 -531 -235 -675 -328 -11 -6 -27 -15
-35 -19 -36 -16 -345 -227 -450 -308 -220 -169 -465 -392 -656 -599 -37 -41
-116 -130 -154 -176 -25 -29 -50 -58 -56 -64 -21 -22 -202 -264 -266 -356
-154 -222 -300 -472 -434 -746 -81 -165 -113 -234 -119 -254 -1 -3 -9 -23 -19
-45 -47 -105 -141 -362 -191 -522 -57 -181 -79 -254 -81 -263 0 -3 -5 -23 -12
-45 -6 -22 -13 -51 -16 -65 -3 -14 -12 -52 -21 -85 -16 -65 -70 -328 -79 -385
-39 -246 -52 -337 -61 -445 -3 -33 -8 -69 -10 -80 -26 -131 -27 -890 -1 -1150
14 -135 27 -255 31 -275 2 -9 6 -39 9 -66 4 -27 8 -62 10 -79 2 -16 7 -41 10
-55 3 -14 8 -43 11 -65 6 -43 39 -214 55 -280 5 -22 19 -80 30 -130 203 -871
637 -1743 1202 -2415 107 -128 129 -152 268 -295 334 -342 692 -622 1082 -846
113 -65 486 -249 504 -249 5 0 29 -10 99 -41 38 -17 220 -81 315 -110 167 -52
204 -63 305 -84 11 -2 61 -13 110 -24 79 -17 295 -52 410 -66 226 -27 766 -27
925 -1 14 3 50 7 80 10 117 13 146 17 163 22 10 3 30 7 45 9 15 2 74 13 132
25 582 121 1133 356 1640 699 95 64 303 218 355 263 110 93 207 178 248 217
146 139 288 286 382 396 33 39 62 72 65 75 72 72 398 528 495 692 65 110 91
157 158 283 169 316 282 579 399 927 32 98 61 186 63 195 2 10 18 65 34 122
25 85 96 385 116 491 6 32 42 252 50 305 3 22 7 54 10 70 2 17 7 53 9 80 3 28
8 73 11 100 24 214 30 353 30 665 0 312 -7 471 -30 675 -3 28 -8 73 -11 100
-3 28 -7 59 -9 70 -2 11 -7 43 -10 70 -3 28 -10 75 -15 105 -5 30 -12 71 -15
90 -22 138 -79 385 -145 635 -80 303 -246 734 -411 1065 -315 633 -699 1146
-1228 1640 -43 41 -215 184 -286 238 -44 34 -84 65 -90 70 -248 191 -661 428
-970 557 -49 20 -115 47 -145 60 -105 44 -463 155 -580 179 -171 36 -331 66
-373 72 -29 3 -63 7 -77 9 -14 2 -54 7 -90 10 -36 4 -78 9 -95 11 -37 6 -601
15 -606 10z"/>
</g>
</svg>
