<?xml version="1.0" standalone="no"?>
<!DOCTYPE svg PUBLIC "-//W3C//DTD SVG 20010904//EN"
 "http://www.w3.org/TR/2001/REC-SVG-20010904/DTD/svg10.dtd">
<svg version="1.0" xmlns="http://www.w3.org/2000/svg"
 width="1164.000000pt" height="1164.000000pt" viewBox="0 0 1164.000000 1164.000000"
 preserveAspectRatio="xMidYMid meet">
<metadata>
Created by potrace 1.11, written by Peter Selinger 2001-2013
</metadata>
<g transform="translate(0.000000,1164.000000) scale(0.100000,-0.100000)"
fill="#000000" stroke="none">
<path d="M5540 11505 c0 -6 -25 -9 -55 -8 -30 0 -57 -3 -60 -8 -3 -4 -16 -4
-30 1 -14 5 -27 6 -30 0 -3 -5 -14 -7 -25 -5 -11 2 -22 -1 -26 -6 -4 -6 -11
-6 -20 2 -11 9 -18 8 -31 -2 -9 -8 -17 -12 -17 -10 -1 3 -81 -5 -140 -14 -11
-2 -37 -6 -56 -9 -19 -3 -50 -10 -68 -15 -38 -11 -35 -11 -68 -11 -14 0 -23
-4 -20 -9 4 -5 -3 -7 -14 -4 -11 3 -27 0 -35 -7 -11 -9 -15 -9 -15 -1 0 9 -5
9 -20 1 -11 -6 -25 -8 -30 -5 -6 3 -10 2 -10 -4 0 -6 -22 -13 -50 -17 -27 -4
-48 -9 -46 -13 2 -3 -6 -7 -17 -8 -26 -3 -39 -6 -97 -23 -25 -8 -48 -14 -52
-16 -5 -1 -10 -3 -13 -4 -3 -1 -8 -3 -12 -5 -5 -1 -15 -4 -23 -8 -24 -9 -74
-20 -82 -19 -5 1 -8 -3 -8 -8 0 -6 -9 -10 -19 -10 -11 0 -22 -4 -25 -9 -4 -5
-17 -8 -31 -6 -14 1 -25 -2 -25 -6 0 -5 -7 -9 -16 -9 -8 0 -13 -4 -10 -8 2 -4
-7 -9 -22 -10 -14 -1 -36 -9 -49 -17 -13 -9 -23 -13 -23 -10 0 3 -13 -1 -29
-9 -16 -9 -31 -12 -34 -9 -4 3 -9 -2 -13 -11 -3 -9 -10 -14 -14 -11 -5 3 -25
-4 -45 -15 -20 -11 -40 -18 -46 -15 -5 4 -9 1 -9 -4 0 -6 -7 -11 -15 -11 -8 0
-15 -5 -15 -10 0 -6 -3 -9 -7 -8 -5 1 -19 -4 -33 -12 -14 -7 -26 -11 -27 -9
-1 2 -11 -3 -21 -12 -10 -8 -23 -14 -30 -11 -7 2 -12 -1 -12 -7 0 -6 -5 -11
-11 -11 -7 0 -28 -10 -48 -22 -20 -13 -39 -23 -43 -23 -4 0 -16 -8 -27 -17
-11 -9 -22 -13 -26 -10 -3 4 -9 2 -13 -4 -4 -6 -27 -21 -51 -34 -25 -12 -51
-29 -59 -36 -7 -8 -20 -14 -28 -14 -8 0 -14 -5 -14 -11 0 -5 -4 -7 -10 -4 -5
3 -10 1 -10 -5 0 -6 -4 -9 -9 -6 -5 3 -11 -1 -15 -9 -3 -8 -10 -15 -15 -15 -6
0 -27 -11 -48 -25 -21 -14 -47 -31 -57 -38 -30 -19 -81 -61 -84 -70 -2 -4 -8
-5 -12 -2 -5 3 -18 -2 -29 -12 -34 -31 -51 -44 -51 -39 0 3 -14 -8 -32 -24
-17 -16 -35 -27 -40 -24 -4 3 -8 -2 -8 -10 0 -8 -10 -18 -22 -21 -11 -4 -32
-19 -45 -33 -12 -14 -23 -22 -23 -18 0 4 -18 -11 -40 -32 -21 -22 -42 -37 -45
-34 -3 3 -5 0 -5 -6 0 -7 -7 -12 -17 -12 -9 0 -14 -3 -10 -6 3 -4 -16 -24 -44
-45 -27 -22 -49 -44 -49 -50 0 -6 -5 -7 -10 -4 -5 3 -10 2 -10 -4 0 -5 -19
-23 -42 -40 -23 -17 -39 -31 -36 -31 4 0 -5 -13 -20 -28 -15 -15 -28 -27 -30
-26 -6 3 -68 -61 -65 -68 2 -4 -5 -9 -14 -12 -10 -3 -27 -19 -38 -35 -10 -16
-22 -28 -26 -25 -4 2 -10 -5 -14 -16 -4 -11 -10 -18 -15 -15 -5 3 -11 -4 -15
-15 -4 -11 -11 -18 -16 -15 -5 4 -9 -1 -9 -10 0 -9 -5 -13 -10 -10 -5 3 -10 1
-10 -6 0 -15 -67 -89 -74 -82 -3 3 -8 -6 -12 -21 -3 -14 -13 -26 -21 -26 -8 0
-11 -4 -8 -10 3 -5 -1 -10 -10 -10 -9 0 -13 -4 -10 -10 3 -5 1 -10 -5 -10 -6
0 -8 -4 -5 -10 3 -5 -1 -10 -10 -10 -9 0 -13 -4 -10 -10 3 -5 -1 -10 -9 -10
-9 0 -16 -5 -16 -11 0 -6 -6 -17 -13 -24 -30 -34 -47 -56 -121 -155 -43 -58
-83 -108 -88 -111 -5 -3 -9 -9 -9 -13 2 -11 -51 -86 -60 -86 -5 0 -9 -10 -9
-22 0 -12 -3 -18 -6 -15 -4 4 -16 -10 -26 -31 -11 -20 -25 -42 -31 -47 -7 -6
-13 -16 -15 -23 -1 -7 -11 -23 -22 -34 -11 -12 -17 -25 -14 -30 3 -4 0 -8 -7
-8 -7 0 -9 -3 -6 -7 4 -3 -4 -16 -16 -27 -13 -12 -22 -26 -20 -32 2 -5 -5 -19
-14 -30 -10 -11 -29 -41 -43 -67 -13 -26 -28 -47 -33 -47 -4 0 -6 -4 -2 -9 3
-6 -3 -14 -12 -20 -14 -8 -15 -11 -3 -11 12 0 11 -3 -3 -11 -9 -6 -15 -14 -12
-20 4 -5 1 -9 -5 -9 -6 0 -8 -4 -5 -10 3 -5 2 -10 -3 -10 -4 0 -14 -16 -22
-35 -8 -19 -17 -35 -21 -35 -4 0 -10 -14 -14 -31 -4 -17 -13 -33 -21 -36 -8
-3 -11 -9 -8 -14 3 -5 -4 -22 -15 -38 -12 -16 -21 -36 -21 -45 0 -9 -4 -16 -8
-16 -4 0 -14 -20 -21 -45 -8 -27 -17 -42 -24 -38 -6 4 -8 0 -4 -10 3 -10 2
-17 -4 -17 -6 0 -7 -5 -3 -12 4 -6 -1 -17 -12 -25 -10 -8 -18 -16 -16 -18 1
-3 -4 -21 -13 -40 -8 -20 -16 -43 -17 -53 -2 -9 -9 -23 -16 -30 -7 -8 -10 -18
-7 -23 4 -5 1 -9 -5 -9 -6 0 -8 -4 -5 -10 3 -5 2 -10 -3 -10 -5 0 -9 -6 -9
-12 0 -7 -8 -30 -17 -50 -10 -20 -19 -42 -20 -50 -1 -7 -8 -23 -14 -35 -7 -13
-10 -23 -6 -23 3 0 -1 -11 -10 -25 -9 -14 -14 -25 -11 -25 3 0 -1 -13 -10 -30
-8 -16 -14 -33 -13 -37 1 -4 -4 -19 -12 -33 -7 -14 -13 -27 -12 -30 2 -9 -11
-55 -18 -65 -9 -11 -25 -76 -22 -87 1 -5 -3 -8 -9 -8 -5 0 -8 -4 -4 -10 3 -5
1 -18 -5 -30 -5 -11 -14 -29 -20 -40 -5 -10 -7 -26 -4 -35 3 -8 1 -15 -5 -15
-6 0 -8 -7 -5 -15 4 -8 1 -22 -6 -30 -7 -8 -10 -22 -6 -30 3 -8 1 -15 -5 -15
-5 0 -9 -6 -8 -12 1 -7 0 -20 -4 -28 -3 -8 -9 -28 -13 -45 -4 -16 -8 -32 -9
-35 -2 -9 -15 -65 -21 -90 -3 -14 -7 -36 -8 -50 -4 -28 -13 -57 -26 -81 -5
-10 -4 -21 3 -28 6 -6 7 -11 1 -11 -8 0 -14 -26 -17 -77 0 -7 -3 -13 -7 -13
-5 0 -11 -38 -13 -92 -1 -10 -5 -18 -9 -18 -5 0 -4 -10 3 -21 8 -15 8 -19 0
-15 -7 5 -11 -5 -12 -26 0 -18 -2 -42 -5 -53 -2 -11 -5 -29 -7 -40 -1 -11 -6
-23 -12 -27 -6 -5 -5 -8 3 -8 9 0 9 -8 -2 -35 -9 -22 -11 -37 -5 -41 6 -3 6
-11 1 -17 -4 -7 -8 -24 -7 -39 0 -16 -2 -28 -6 -28 -3 0 -4 -11 -1 -25 2 -14
-1 -31 -7 -39 -7 -8 -8 -17 -4 -19 10 -6 10 -48 0 -63 -3 -6 -7 -45 -8 -87 -1
-42 -6 -77 -12 -77 -6 0 -5 -5 1 -13 6 -7 7 -19 3 -26 -5 -7 -5 -28 -1 -47 4
-19 4 -34 0 -34 -5 0 -5 -13 0 -30 5 -16 6 -30 2 -30 -10 0 -8 -62 2 -79 6
-10 5 -12 -2 -7 -9 5 -12 -33 -12 -149 0 -122 3 -155 13 -149 9 6 9 5 1 -7
-12 -14 -11 -65 0 -76 3 -4 1 -12 -5 -19 -5 -7 -6 -15 -1 -18 5 -3 6 -28 2
-56 -4 -28 -3 -53 1 -56 5 -3 4 -16 -1 -29 -7 -17 -6 -25 1 -25 6 0 9 -7 6
-15 -4 -8 -2 -17 4 -21 7 -4 6 -10 0 -18 -6 -7 -8 -16 -4 -19 3 -4 7 -28 7
-54 1 -27 4 -53 9 -60 4 -6 3 -14 -3 -18 -6 -4 -7 -12 -3 -18 9 -14 11 -29 14
-84 2 -24 7 -43 13 -43 6 0 5 -5 -2 -12 -6 -6 -8 -18 -3 -27 4 -9 9 -36 10
-61 2 -25 6 -47 9 -50 4 -3 8 -30 10 -60 2 -30 8 -59 12 -64 5 -5 5 -17 -1
-28 -6 -12 -6 -18 1 -18 5 0 10 -12 10 -26 0 -14 5 -35 11 -46 7 -12 7 -18 1
-14 -7 4 -7 -4 -1 -24 5 -16 13 -43 18 -60 7 -21 6 -30 -2 -30 -9 0 -9 -2 -1
-8 7 -4 13 -20 15 -37 2 -16 7 -36 12 -42 5 -7 7 -20 3 -28 -3 -8 -1 -15 4
-15 5 0 7 -7 4 -15 -4 -8 -1 -15 6 -15 10 0 10 -3 0 -15 -7 -8 -8 -15 -3 -15
9 0 39 -122 37 -148 -1 -6 2 -12 7 -12 5 0 9 -11 9 -24 0 -14 5 -28 11 -32 6
-3 9 -15 6 -25 -3 -11 -1 -19 5 -19 5 0 6 -5 3 -10 -3 -6 0 -10 7 -10 10 0 10
-2 -1 -9 -10 -7 -10 -10 -1 -13 7 -2 13 -16 13 -31 0 -15 2 -27 6 -27 4 0 12
-26 20 -58 7 -31 17 -62 22 -68 5 -6 10 -19 12 -30 9 -46 20 -74 29 -74 6 0 5
-6 -2 -15 -9 -10 -9 -15 -1 -15 6 0 11 -9 11 -20 0 -11 5 -20 10 -20 6 0 10
-11 10 -24 0 -14 5 -28 10 -31 6 -3 10 -17 10 -31 0 -13 5 -24 11 -24 6 0 9
-7 5 -15 -3 -8 -1 -15 4 -15 6 0 9 -3 8 -7 -1 -5 4 -21 11 -38 7 -16 15 -39
17 -50 2 -11 8 -21 14 -23 5 -2 10 -11 10 -21 0 -22 23 -71 33 -71 5 0 6 -4 2
-9 -3 -5 -1 -12 5 -16 6 -4 8 -11 5 -16 -4 -5 -2 -9 3 -9 5 0 9 -6 9 -12 0 -7
14 -43 32 -79 17 -36 31 -71 31 -77 0 -7 5 -12 10 -12 6 0 10 -9 10 -20 0 -11
5 -20 10 -20 6 0 10 -9 10 -20 0 -11 5 -20 10 -20 6 0 10 -9 10 -20 0 -11 5
-20 10 -20 6 0 10 -9 10 -20 0 -11 5 -20 10 -20 6 0 10 -7 10 -16 0 -8 7 -22
16 -31 8 -9 13 -21 10 -28 -3 -8 1 -16 7 -18 7 -3 26 -31 42 -64 17 -32 33
-60 38 -61 4 -2 7 -10 7 -18 0 -8 5 -14 11 -14 5 0 8 -4 4 -9 -3 -5 2 -16 10
-24 8 -9 15 -20 15 -24 0 -5 9 -19 21 -31 11 -12 17 -27 14 -32 -3 -6 -2 -10
4 -10 6 0 20 -18 31 -40 11 -22 25 -40 31 -40 6 0 7 -4 4 -10 -3 -5 -2 -10 3
-10 5 0 17 -18 27 -40 10 -22 22 -40 26 -40 4 0 16 -16 25 -35 9 -19 20 -35
25 -35 5 0 9 -7 9 -15 0 -8 5 -15 10 -15 6 0 10 -7 10 -15 0 -9 6 -18 14 -21
8 -3 20 -19 26 -35 7 -16 15 -29 19 -29 3 0 17 -17 31 -38 14 -20 32 -44 41
-52 17 -16 33 -50 30 -63 -1 -5 3 -6 8 -2 10 5 37 -33 33 -47 -1 -4 5 -5 14
-1 13 5 15 2 9 -16 -3 -12 -3 -21 2 -20 22 4 33 -3 33 -22 0 -11 4 -17 10 -14
5 3 10 0 10 -7 0 -7 14 -24 30 -38 17 -14 30 -30 30 -37 0 -7 5 -13 10 -13 6
0 10 -8 10 -17 0 -15 2 -16 10 -3 8 13 10 13 10 -1 0 -9 7 -20 16 -23 8 -3 12
-11 9 -16 -4 -6 -1 -9 7 -8 7 2 12 -3 10 -9 -1 -7 2 -13 8 -13 5 0 10 -7 10
-16 0 -8 4 -12 10 -9 5 3 10 1 10 -5 0 -6 5 -8 10 -5 14 9 12 -8 -2 -25 -11
-12 -10 -12 3 -2 13 10 19 9 28 -1 6 -8 7 -18 3 -22 -4 -5 -2 -5 4 -2 6 3 26
-11 45 -33 19 -22 39 -40 46 -40 6 0 15 -9 18 -20 4 -12 11 -17 18 -13 7 4 5
-2 -3 -12 -8 -10 -10 -16 -4 -12 14 8 56 -21 49 -34 -3 -5 1 -6 9 -3 10 4 16
1 16 -8 0 -7 9 -20 19 -28 11 -7 18 -17 15 -22 -3 -4 2 -5 10 -2 10 4 16 1 16
-9 0 -9 9 -19 20 -22 11 -3 20 -11 20 -16 0 -6 3 -8 8 -6 8 6 33 -19 26 -25
-2 -3 12 -13 31 -24 19 -10 35 -24 35 -31 0 -7 5 -13 10 -13 6 0 21 -10 34
-22 12 -13 34 -29 49 -37 15 -8 27 -20 27 -28 0 -7 3 -12 8 -11 12 5 52 -28
44 -37 -4 -4 0 -6 8 -3 8 2 23 -6 33 -19 10 -13 25 -23 33 -23 8 0 14 -4 14
-10 0 -5 7 -10 16 -10 8 0 12 -4 9 -10 -3 -5 0 -10 8 -10 7 0 23 -9 35 -20 12
-11 26 -20 32 -20 5 0 10 -4 10 -10 0 -5 5 -10 11 -10 7 0 20 -10 30 -22 11
-11 19 -18 19 -13 0 4 15 -4 34 -19 19 -14 39 -26 45 -26 6 0 11 -4 11 -10 0
-5 7 -10 15 -10 8 0 15 -4 15 -10 0 -5 7 -10 15 -10 8 0 15 -5 15 -11 0 -5 5
-7 10 -4 6 3 10 1 10 -6 0 -7 3 -10 6 -6 3 3 18 -5 33 -19 14 -13 32 -22 39
-19 6 2 12 -3 12 -11 0 -8 5 -12 10 -9 6 3 10 1 10 -4 0 -6 9 -11 20 -11 11 0
23 -7 27 -16 3 -8 12 -13 19 -10 8 3 14 1 14 -4 0 -6 7 -10 15 -10 8 0 15 -4
15 -9 0 -7 25 -18 46 -20 2 0 16 -9 31 -21 14 -11 32 -20 40 -20 7 0 16 -7 19
-15 4 -8 9 -13 13 -10 4 2 29 -7 56 -20 27 -14 54 -25 62 -25 7 0 13 -5 13
-11 0 -5 5 -7 10 -4 6 3 10 1 10 -5 0 -6 5 -8 10 -5 6 3 10 3 10 -2 0 -7 50
-28 86 -36 7 -2 19 -9 28 -16 9 -7 16 -11 16 -7 0 4 10 0 23 -8 12 -7 30 -12
40 -11 9 2 15 0 12 -5 -4 -7 15 -16 50 -25 6 -1 13 -3 18 -5 4 -1 10 -4 15 -5
4 -1 23 -8 42 -16 19 -7 38 -12 43 -11 4 1 7 -2 7 -8 0 -5 7 -6 17 -3 10 4 14
2 10 -4 -4 -6 4 -11 18 -12 48 -3 55 -4 55 -13 0 -5 4 -7 9 -3 5 3 12 1 16 -5
4 -6 10 -8 15 -5 5 3 24 -3 43 -14 19 -11 37 -18 39 -15 2 2 20 -1 39 -7 19
-5 45 -12 59 -15 14 -3 27 -10 28 -15 3 -6 9 -6 17 1 9 8 15 8 20 0 3 -5 17
-10 31 -10 14 0 23 -3 21 -7 -3 -5 5 -8 16 -9 48 -2 87 -9 87 -14 0 -3 21 -6
47 -8 26 -2 50 -6 53 -10 3 -4 21 -8 40 -10 50 -4 63 -7 78 -15 7 -5 12 -4 12
2 0 13 22 10 31 -3 4 -4 35 -10 70 -11 35 -2 64 -4 64 -5 0 -2 35 -9 73 -13
17 -3 32 0 32 5 0 5 6 6 13 1 22 -14 146 -21 165 -9 7 4 12 3 12 -3 0 -6 11
-6 30 -1 21 6 28 5 24 -2 -7 -12 396 -6 415 6 6 4 11 2 11 -4 0 -6 5 -8 11 -4
7 4 37 9 68 11 103 7 116 9 128 16 6 4 15 3 18 -3 5 -8 11 -7 21 1 8 6 14 8
14 3 0 -5 5 -2 10 6 7 11 10 11 10 2 0 -7 4 -11 10 -7 5 3 26 8 47 10 96 13
117 16 134 26 14 7 19 6 19 -2 0 -8 4 -8 13 -1 11 9 103 27 120 24 4 -1 7 3 7
9 0 6 7 9 15 5 8 -3 27 -1 42 4 15 5 44 11 63 14 19 3 36 9 38 14 1 4 16 7 32
6 17 -1 30 2 30 8 0 5 4 7 9 3 5 -3 12 -1 15 4 4 5 14 8 24 6 9 -1 22 1 28 6
6 5 19 10 30 12 10 2 26 7 34 10 45 17 116 37 138 39 6 1 12 5 12 10 0 5 4 7
9 3 5 -3 13 0 16 6 4 5 13 8 21 5 8 -3 14 -1 14 4 0 6 3 9 8 8 4 -1 20 4 35
10 16 7 35 12 43 12 8 0 13 4 10 9 -3 4 6 7 19 5 14 -1 23 1 20 6 -3 4 7 11
22 15 15 3 48 16 72 27 25 11 50 21 57 22 7 1 19 8 28 15 8 7 19 10 25 7 5 -3
12 1 15 9 3 8 9 14 13 13 4 -1 18 3 31 10 12 7 22 9 22 5 0 -4 5 0 11 10 6 9
14 15 20 12 5 -4 9 -2 9 4 0 6 7 8 15 5 8 -4 15 -2 15 3 0 5 16 15 35 23 19 8
35 18 35 24 0 5 3 7 6 4 3 -4 33 10 67 29 34 20 78 44 97 55 19 11 40 24 46
29 6 5 14 6 17 2 4 -3 7 -1 7 6 0 7 4 10 9 7 5 -3 12 1 15 10 4 9 9 14 12 11
4 -3 15 3 27 13 11 11 24 17 29 14 4 -3 8 -1 8 5 0 5 20 20 45 32 24 12 42 26
39 31 -5 7 10 12 29 9 4 0 7 4 7 10 0 5 5 7 10 4 6 -3 10 -1 10 5 0 6 8 14 17
17 28 10 63 40 56 47 -3 3 0 6 8 6 20 0 120 76 111 85 -4 4 -2 5 4 3 13 -3 93
52 94 65 0 4 7 7 15 7 8 0 14 5 13 11 -2 6 5 13 16 14 10 2 25 13 33 24 8 12
21 21 29 21 8 0 12 5 9 10 -3 6 2 10 11 10 10 0 14 3 11 7 -4 3 3 13 16 22 12
9 23 13 24 11 1 -3 14 10 28 29 14 19 25 32 25 28 0 -5 12 4 27 18 15 14 31
25 36 25 4 0 6 4 3 8 -3 5 4 15 15 23 27 18 71 59 65 59 -2 0 10 15 27 33 18
18 35 31 39 30 4 -2 9 6 13 17 4 11 10 18 15 15 5 -3 11 4 15 15 4 11 11 18
16 15 5 -4 9 1 9 10 0 9 4 14 9 10 5 -3 12 4 16 15 4 11 10 18 15 15 5 -3 11
4 15 15 4 11 11 18 16 15 5 -4 9 -2 9 4 0 5 8 17 17 27 10 10 18 21 18 26 0 4
3 7 7 6 4 -2 18 12 31 29 13 18 27 29 31 25 4 -4 7 -2 6 3 -5 22 1 34 20 40
11 4 18 11 15 16 -4 5 -1 9 5 9 6 0 9 4 5 9 -3 5 4 13 16 16 11 4 18 9 16 12
-3 2 11 21 30 41 19 20 41 49 49 64 7 15 24 34 36 42 12 9 19 16 14 16 -7 0
38 62 76 104 10 11 18 23 18 27 0 4 6 14 13 21 15 16 44 60 46 71 0 4 9 15 19
25 31 33 52 62 45 62 -3 0 1 8 10 18 10 10 14 22 11 25 -4 4 1 9 10 13 9 3 16
12 16 20 0 8 4 14 8 14 5 0 19 20 31 45 12 25 27 45 32 45 6 0 8 4 4 9 -3 6 1
13 9 18 8 4 14 10 14 13 0 13 26 60 34 60 5 0 7 4 3 9 -3 5 -1 12 5 16 6 4 8
11 5 16 -4 5 -2 9 4 9 6 0 20 20 31 45 11 25 26 45 32 45 6 0 8 3 5 7 -4 3 3
21 14 40 11 18 17 33 13 33 -4 0 2 8 12 17 10 10 19 23 20 28 1 21 45 105 55
105 6 0 8 4 5 9 -3 5 5 29 19 54 13 25 25 54 27 64 2 9 11 25 21 35 10 10 15
23 12 28 -3 5 -1 11 5 15 6 4 8 11 5 16 -4 5 -1 9 4 9 6 0 11 5 11 11 0 5 10
31 22 57 11 26 21 53 21 60 0 6 4 12 9 12 5 0 6 4 3 10 -3 5 -1 10 4 10 6 0
10 3 10 8 -4 17 14 72 23 72 6 0 8 7 4 15 -3 8 -1 15 5 15 6 0 7 4 4 10 -3 5
-1 10 4 10 6 0 10 3 10 8 -4 21 15 71 25 65 6 -3 8 -3 4 2 -4 4 -1 23 7 41 8
19 15 38 15 42 5 28 25 92 30 92 3 0 6 10 7 22 1 11 8 25 15 29 10 7 10 9 -1
9 -10 0 -11 3 -2 13 6 8 8 17 4 20 -3 4 -1 7 5 7 7 0 11 3 11 8 -1 4 0 9 1 12
1 3 4 18 6 35 3 16 9 35 15 41 5 6 6 14 2 17 -3 4 -1 7 7 7 9 0 10 3 1 14 -9
10 -9 15 0 18 6 2 12 16 12 31 1 15 5 27 10 27 4 0 6 3 6 8 -1 4 0 10 1 15 1
4 3 10 4 15 1 4 8 30 15 58 7 29 13 58 14 65 2 8 5 19 8 24 4 6 6 22 5 37 -1
14 3 24 8 21 5 -4 7 3 4 15 -4 12 -2 22 3 22 5 0 9 13 9 28 0 15 5 33 12 40 9
9 9 12 0 12 -9 0 -10 5 -3 18 13 24 23 71 22 100 -1 14 3 21 10 16 8 -4 8 0 0
15 -7 11 -8 21 -3 21 6 0 12 9 15 20 3 13 1 18 -5 13 -7 -4 -8 -1 -3 7 4 7 10
29 12 49 2 19 9 41 15 48 7 9 7 13 -1 13 -7 0 -9 5 -5 12 4 6 8 21 10 32 5 42
15 90 21 99 4 6 1 7 -6 2 -10 -6 -11 -3 -3 11 8 17 35 243 36 302 0 12 4 22 8
22 5 0 4 9 -2 20 -8 14 -8 20 0 20 8 0 8 6 0 20 -7 12 -7 20 -1 20 6 0 9 49 8
125 -1 69 1 125 5 125 9 0 6 30 -5 47 -4 6 -2 15 3 18 10 6 8 222 -3 593 0 6
-5 12 -10 12 -5 0 -4 6 2 13 6 8 8 17 4 20 -10 11 -10 57 0 57 5 0 5 6 -1 13
-6 7 -12 38 -13 70 -1 31 -5 57 -8 57 -3 0 -7 21 -7 48 -3 114 -4 123 -15 116
-8 -4 -8 -1 -1 13 7 12 7 24 0 36 -5 10 -10 32 -10 50 0 18 -5 37 -10 44 -5 7
-5 14 1 18 8 4 7 15 -2 33 -7 15 -12 36 -12 47 1 11 -3 25 -7 32 -5 6 -4 14 2
18 8 5 8 11 0 20 -7 8 -13 24 -15 37 -14 87 -18 115 -19 131 0 9 -4 17 -9 17
-4 0 -6 4 -3 9 4 5 0 12 -6 14 -10 4 -10 6 0 6 10 1 10 6 1 23 -7 13 -14 34
-15 48 -3 24 -10 59 -14 70 -1 3 -2 8 -1 13 0 4 -4 7 -10 7 -8 0 -8 5 1 15 9
11 9 15 1 15 -7 0 -10 4 -6 9 3 5 1 12 -4 16 -6 3 -8 12 -4 20 3 8 0 15 -7 15
-6 0 -8 5 -5 10 4 6 1 17 -5 25 -7 8 -10 15 -7 15 3 0 -3 29 -13 65 -10 36
-16 65 -12 65 4 0 1 4 -6 9 -7 4 -14 24 -15 44 -1 19 -6 35 -12 34 -5 -1 -9 8
-7 20 2 12 -2 24 -8 28 -5 3 -10 19 -10 36 0 16 -4 29 -10 29 -5 0 -10 10 -10
23 0 13 -3 26 -6 30 -5 5 -48 120 -57 152 -7 24 -42 110 -46 115 -7 6 -13 29
-14 48 0 6 -4 12 -9 12 -5 0 -7 4 -3 9 3 5 -2 17 -11 25 -8 9 -13 16 -9 16 3
0 -1 13 -9 29 -9 16 -12 31 -9 35 4 3 1 6 -6 6 -7 0 -11 6 -8 14 3 8 -1 17 -9
20 -9 3 -12 11 -8 17 3 6 1 15 -5 19 -7 4 -13 17 -14 28 -1 12 -4 22 -7 22 -3
0 -11 9 -18 21 -11 17 -11 20 0 13 7 -4 4 2 -6 14 -11 12 -15 22 -10 22 5 0 4
4 -1 8 -6 4 -21 32 -35 62 -14 30 -27 57 -30 60 -9 8 -34 65 -32 73 1 4 -2 7
-7 7 -7 0 -21 33 -20 48 0 1 -7 10 -16 18 -8 9 -15 22 -15 30 0 8 -4 14 -10
14 -5 0 -10 9 -10 20 0 11 -4 20 -9 20 -10 0 -37 60 -33 73 1 5 -2 6 -8 2 -5
-3 -10 1 -10 9 0 9 -4 16 -8 16 -4 0 -13 12 -19 28 -14 30 -32 59 -50 79 -6 7
-15 23 -19 35 -4 12 -12 28 -18 35 -30 34 -36 43 -29 43 4 0 3 4 -2 8 -14 9
-75 103 -75 114 0 5 -4 7 -8 4 -5 -3 -14 11 -21 30 -7 19 -16 32 -20 30 -4 -3
-12 7 -19 22 -6 15 -25 42 -41 60 -17 17 -27 32 -23 32 4 0 -6 12 -21 26 -15
14 -25 29 -22 35 4 5 -1 9 -9 9 -9 0 -16 9 -16 20 0 11 -7 20 -15 20 -8 0 -17
11 -21 25 -3 13 -15 27 -25 30 -10 4 -19 12 -19 18 0 7 -8 20 -17 28 -10 9
-25 26 -33 38 -8 13 -34 42 -57 66 -23 24 -39 46 -36 49 4 3 -1 6 -11 6 -9 0
-14 5 -11 10 3 6 -1 10 -9 10 -9 0 -16 8 -16 18 0 10 -11 25 -25 32 -14 7 -25
18 -25 24 0 6 -14 20 -30 31 -17 11 -33 28 -36 38 -3 9 -12 17 -20 17 -8 0
-14 7 -14 16 0 8 -4 13 -9 9 -5 -3 -12 3 -15 13 -4 10 -17 25 -31 32 -14 7
-27 21 -30 30 -3 9 -17 23 -30 30 -14 7 -25 18 -25 24 0 6 -14 20 -30 31 -16
11 -30 23 -30 28 0 4 -7 7 -16 7 -8 0 -12 5 -9 10 3 6 -1 10 -9 10 -8 0 -17 9
-21 19 -3 11 -15 23 -26 26 -10 4 -19 11 -19 16 0 6 -4 8 -9 4 -5 -3 -12 4
-16 14 -3 11 -14 23 -24 26 -10 3 -40 26 -67 50 -27 25 -55 45 -62 45 -7 0
-11 3 -9 8 3 4 -13 18 -34 32 -21 13 -39 28 -39 32 0 4 -5 8 -10 8 -6 0 -20 9
-32 20 -12 10 -25 17 -30 14 -4 -3 -8 3 -8 12 0 10 -3 15 -6 11 -3 -3 -14 2
-25 11 -11 9 -22 16 -24 15 -2 -1 -18 11 -35 27 -17 16 -44 35 -60 42 -17 7
-30 16 -30 19 0 4 -13 12 -30 19 -16 7 -30 16 -30 21 0 4 -9 11 -20 14 -11 3
-26 12 -32 19 -7 6 -30 20 -50 29 -21 10 -38 22 -38 27 0 6 -3 9 -7 8 -10 -2
-47 14 -53 22 -6 8 -79 47 -95 50 -5 1 -22 11 -37 21 -14 10 -31 19 -37 19 -6
0 -11 5 -11 11 0 5 -4 7 -10 4 -5 -3 -10 -1 -10 6 0 7 -3 10 -6 7 -5 -5 -127
49 -186 82 -10 6 -25 10 -33 10 -8 0 -15 5 -15 10 0 6 -9 10 -19 10 -11 0 -23
5 -26 10 -3 6 -15 10 -25 10 -10 0 -20 4 -22 10 -1 5 -15 11 -30 12 -16 1 -28
5 -28 9 0 7 -82 35 -92 31 -5 -1 -8 2 -8 6 0 5 -24 14 -52 21 -29 8 -57 17
-63 21 -10 7 -61 23 -80 25 -5 0 -16 4 -22 8 -7 5 -18 5 -25 1 -7 -4 -8 -3 -4
4 4 8 0 12 -11 12 -10 1 -35 7 -55 14 -27 10 -38 10 -38 2 0 -6 -5 -4 -10 4
-5 8 -10 11 -10 6 0 -6 -5 -5 -12 2 -7 7 -20 12 -30 12 -10 0 -18 6 -18 13 0
9 -3 8 -9 -2 -6 -9 -11 -10 -15 -3 -4 6 -13 9 -21 5 -9 -3 -15 1 -15 8 0 11
-3 11 -10 -1 -7 -11 -10 -11 -10 -2 0 7 -4 11 -9 7 -5 -3 -12 -1 -16 5 -4 6
-11 8 -16 5 -5 -4 -9 0 -9 7 0 9 -3 10 -8 2 -5 -8 -22 -6 -59 6 -36 12 -55 14
-63 6 -7 -7 -10 -6 -10 2 0 7 -3 11 -7 11 -5 -1 -10 0 -13 1 -6 2 -33 6 -90
14 -64 8 -73 11 -87 19 -7 5 -13 4 -13 -1 0 -11 -50 -3 -67 11 -9 6 -13 6 -13
-2 0 -8 -5 -9 -19 -1 -14 7 -21 6 -24 -3 -4 -9 -6 -9 -6 1 -1 8 -18 12 -48 13
-27 0 -69 4 -95 8 -26 4 -53 4 -60 0 -7 -4 -18 -3 -25 3 -8 6 -13 7 -13 1 0
-7 -16 -7 -42 -3 -57 11 -319 10 -339 -1 -9 -5 -20 -4 -26 2 -8 8 -17 8 -30 0
-14 -7 -23 -7 -31 1 -7 7 -12 8 -12 3z"/>
</g>
</svg>
