<?xml version="1.0" encoding="utf-8"?>
<!-- Generator: Adobe Illustrator 16.0.4, SVG Export Plug-In . SVG Version: 6.00 Build 0)  -->
<!DOCTYPE svg PUBLIC "-//W3C//DTD SVG 1.1//EN" "http://www.w3.org/Graphics/SVG/1.1/DTD/svg11.dtd">
<svg version="1.1" id="Layer_1" xmlns="http://www.w3.org/2000/svg" xmlns:xlink="http://www.w3.org/1999/xlink" x="0px" y="0px"
	 width="722.964px" height="391.9px" viewBox="0 0 722.964 391.9" enable-background="new 0 0 722.964 391.9" xml:space="preserve">
<g id="Layer_4">
	
		<polygon fill="#FFEECC" stroke="#000000" stroke-width="8" stroke-linecap="round" stroke-linejoin="round" stroke-miterlimit="10" points="
		447.109,377.593 13.887,377.593 139.139,72.439 572.361,72.439 	"/>
</g>
<g id="Layer_2">
	<g>
		
			<polygon fill="#AADDDD" stroke="#000000" stroke-width="8" stroke-linecap="round" stroke-linejoin="round" stroke-miterlimit="10" points="
			709.08,13.532 572.361,72.439 447.109,377.593 583.828,318.686 		"/>
	</g>
</g>
<g id="Layer_5">
	<g>
		
			<polygon fill="#FF9999" stroke="#000000" stroke-width="8" stroke-linecap="round" stroke-linejoin="round" stroke-miterlimit="10" points="
			709.08,13.532 275.858,13.532 139.139,72.439 572.361,72.439 		"/>
	</g>
</g>
<g id="Layer_3">
	<g>
		
			<polygon fill="none" stroke="#000000" stroke-width="6" stroke-linecap="round" stroke-linejoin="round" stroke-miterlimit="10" points="
			583.828,318.686 150.606,318.686 275.858,13.532 709.08,13.532 		"/>
		
			<polygon fill="none" stroke="#000000" stroke-width="6" stroke-linecap="round" stroke-linejoin="round" stroke-miterlimit="10" points="
			447.109,377.593 13.887,377.593 139.139,72.439 572.361,72.439 		"/>
		
			<line fill="none" stroke="#000000" stroke-width="6" stroke-linecap="round" stroke-linejoin="round" stroke-miterlimit="10" x1="572.361" y1="72.439" x2="709.08" y2="13.532"/>
		
			<line fill="none" stroke="#000000" stroke-width="6" stroke-linecap="round" stroke-linejoin="round" stroke-miterlimit="10" x1="447.109" y1="377.593" x2="583.828" y2="318.686"/>
		
			<line fill="none" stroke="#000000" stroke-width="6" stroke-linecap="round" stroke-linejoin="round" stroke-miterlimit="10" x1="139.139" y1="72.439" x2="275.858" y2="13.532"/>
		
			<line fill="none" stroke="#000000" stroke-width="6" stroke-linecap="round" stroke-linejoin="round" stroke-miterlimit="10" x1="13.887" y1="377.593" x2="150.606" y2="318.686"/>
	</g>
</g>
</svg>
